<?xml version="1.0" encoding="UTF-8" standalone="no"?>
<!-- Created with Inkscape (http://www.inkscape.org/) -->

<svg
   xmlns:dc="http://purl.org/dc/elements/1.1/"
   xmlns:cc="http://creativecommons.org/ns#"
   xmlns:rdf="http://www.w3.org/1999/02/22-rdf-syntax-ns#"
   xmlns:svg="http://www.w3.org/2000/svg"
   xmlns="http://www.w3.org/2000/svg"
   xmlns:sodipodi="http://sodipodi.sourceforge.net/DTD/sodipodi-0.dtd"
   xmlns:inkscape="http://www.inkscape.org/namespaces/inkscape"
   width="2328.6353"
   height="3116.9958"
   viewBox="0 0 2328.6354 3116.9959"
   id="svg2"
   version="1.1"
   inkscape:version="0.92.3 (2405546, 2018-03-11)"
   sodipodi:docname="rez.svg"
   inkscape:export-filename="/home/eric/data/WORK/PROJECT/TOOL/REZ/LOGO/rez.png"
   inkscape:export-xdpi="90"
   inkscape:export-ydpi="90">
  <defs
     id="defs4"><marker
   inkscape:stockid="Arrow1Lstart"
   orient="auto"
   refY="0"
   refX="0"
   id="Arrow1Lstart"
   style="overflow:visible"
   inkscape:isstock="true">
  <path
     id="path4170"
     d="M 0,0 5,-5 -12.5,0 5,5 Z"
     style="fill:#000000;fill-opacity:1;fill-rule:evenodd;stroke:#000000;stroke-width:1.00000003pt;stroke-opacity:1"
     transform="matrix(0.8,0,0,0.8,10,0)"
     inkscape:connector-curvature="0" />
</marker>

	

		
		
		
		
		
		
		
		
		
		
		
		
		
		
		
		
		
		
	</defs>
  <sodipodi:namedview
     id="base"
     pagecolor="#ffffff"
     bordercolor="#666666"
     borderopacity="1.0"
     inkscape:pageopacity="0.0"
     inkscape:pageshadow="2"
     inkscape:zoom="0.12374369"
     inkscape:cx="7102.0915"
     inkscape:cy="1840.3896"
     inkscape:document-units="px"
     inkscape:current-layer="layer1"
     showgrid="false"
     units="px"
     inkscape:window-width="3840"
     inkscape:window-height="2095"
     inkscape:window-x="0"
     inkscape:window-y="32"
     inkscape:window-maximized="1"
     fit-margin-top="150"
     fit-margin-left="150"
     fit-margin-right="150"
     fit-margin-bottom="150"
     showguides="true"
     inkscape:guide-bbox="true">
    <inkscape:grid
       type="xygrid"
       id="grid4149"
       originx="-482.19052"
       originy="-301.66721" />
  </sodipodi:namedview>
  <metadata
     id="metadata7">
    <rdf:RDF>
      <cc:Work
         rdf:about="">
        <dc:format>image/svg+xml</dc:format>
        <dc:type
           rdf:resource="http://purl.org/dc/dcmitype/StillImage" />
        <dc:title></dc:title>
      </cc:Work>
    </rdf:RDF>
  </metadata>
  <g
     inkscape:label="Calque 1"
     inkscape:groupmode="layer"
     id="layer1"
     transform="translate(-482.18988,2366.3002)">
    <text
       xml:space="preserve"
       style="font-style:normal;font-variant:normal;font-weight:normal;font-stretch:normal;font-size:19.08811378px;line-height:0%;font-family:Ubuntu;-inkscape-font-specification:Ubuntu;letter-spacing:0px;word-spacing:0px;fill:#204cd8;fill-opacity:1;stroke:none;stroke-width:1.59067607px;stroke-linecap:butt;stroke-linejoin:miter;stroke-opacity:1"
       x="593.65942"
       y="600.69562"
       id="text4177"><tspan
         sodipodi:role="line"
         id="tspan4179"
         x="593.65942"
         y="600.69562"
         style="font-style:normal;font-variant:normal;font-weight:normal;font-stretch:normal;font-size:1244.07617188px;line-height:1.25;font-family:'URW Gothic L';-inkscape-font-specification:'URW Gothic L';letter-spacing:0px;fill:#208fd8;fill-opacity:1;stroke-width:1.59067607px">REZ</tspan></text>
    <g
       id="g880"
       transform="matrix(91.954465,0,0,91.954465,3497.0479,-4161.621)">
</g>
    <g
       id="g882"
       transform="matrix(91.954465,0,0,91.954465,3497.0479,-4161.621)">
</g>
    <g
       id="g884"
       transform="matrix(91.954465,0,0,91.954465,3497.0479,-4161.621)">
</g>
    <g
       id="g886"
       transform="matrix(91.954465,0,0,91.954465,3497.0479,-4161.621)">
</g>
    <g
       id="g888"
       transform="matrix(91.954465,0,0,91.954465,3497.0479,-4161.621)">
</g>
    <g
       id="g890"
       transform="matrix(91.954465,0,0,91.954465,3497.0479,-4161.621)">
</g>
    <g
       id="g892"
       transform="matrix(91.954465,0,0,91.954465,3497.0479,-4161.621)">
</g>
    <g
       id="g894"
       transform="matrix(91.954465,0,0,91.954465,3497.0479,-4161.621)">
</g>
    <g
       id="g896"
       transform="matrix(91.954465,0,0,91.954465,3497.0479,-4161.621)">
</g>
    <g
       id="g898"
       transform="matrix(91.954465,0,0,91.954465,3497.0479,-4161.621)">
</g>
    <g
       id="g900"
       transform="matrix(91.954465,0,0,91.954465,3497.0479,-4161.621)">
</g>
    <g
       id="g902"
       transform="matrix(91.954465,0,0,91.954465,3497.0479,-4161.621)">
</g>
    <g
       id="g904"
       transform="matrix(91.954465,0,0,91.954465,3497.0479,-4161.621)">
</g>
    <g
       id="g906"
       transform="matrix(91.954465,0,0,91.954465,3497.0479,-4161.621)">
</g>
    <g
       id="g908"
       transform="matrix(91.954465,0,0,91.954465,3497.0479,-4161.621)">
</g>
    <g
       id="g1056"
       transform="matrix(0.93949843,0,0,0.93949843,-3196.681,1014.2432)">
      <polygon
         style="fill:#f37445;fill-opacity:1"
         transform="matrix(91.954465,0,0,91.954465,3497.0479,-4161.621)"
         id="polygon840"
         points="12.16,13.674 17.192,10.768 12.16,7.863 " />
      <polygon
         style="fill:#f37445;fill-opacity:1"
         transform="matrix(91.954465,0,0,91.954465,3497.0479,-4161.621)"
         id="polygon842"
         points="18.87,10.768 23.903,13.674 23.901,7.863 " />
      <polygon
         style="fill:#f37445;fill-opacity:1"
         transform="matrix(91.954465,0,0,91.954465,3497.0479,-4161.621)"
         id="polygon844"
         points="11.322,15.126 6.29,18.031 11.322,20.937 " />
      <polygon
         style="fill:#f37445;fill-opacity:1"
         transform="matrix(91.954465,0,0,91.954465,3497.0479,-4161.621)"
         id="polygon846"
         points="17.192,25.295 12.16,22.389 12.161,28.199 " />
      <polygon
         style="fill:#f37445;fill-opacity:1"
         transform="matrix(91.954465,0,0,91.954465,3497.0479,-4161.621)"
         id="polygon848"
         points="24.741,20.937 29.772,18.031 24.741,15.126 " />
      <polygon
         style="fill:#f37445;fill-opacity:1"
         transform="matrix(91.954465,0,0,91.954465,3497.0479,-4161.621)"
         id="polygon850"
         points="23.903,22.389 18.87,25.295 23.903,28.199 " />
      <polygon
         points="23.903,22.389 18.87,25.295 23.903,28.199 "
         id="polygon1032"
         transform="matrix(91.954465,0,0,91.954465,2919.9415,-5170.2238)"
         style="fill:#208fd8;fill-opacity:1" />
      <polygon
         points="23.901,7.863 18.87,10.768 23.903,13.674 "
         id="polygon1034"
         transform="matrix(91.954465,0,0,91.954465,2920.0334,-3153.0182)"
         style="fill:#208fd8;fill-opacity:1" />
      <polygon
         points="17.192,25.295 12.16,22.389 12.161,28.199 "
         id="polygon1036"
         transform="matrix(91.954465,0,0,91.954465,4074.1543,-5170.2238)"
         style="fill:#208fd8;fill-opacity:1" />
      <polygon
         points="29.772,18.031 24.741,15.126 24.741,20.937 "
         id="polygon1038"
         transform="matrix(91.954465,0,0,91.954465,2343.1109,-4161.621)"
         style="fill:#208fd8;fill-opacity:1" />
      <polygon
         points="11.322,20.937 11.322,15.126 6.29,18.031 "
         id="polygon1040"
         transform="matrix(91.954465,0,0,91.954465,4650.9849,-4161.621)"
         style="fill:#208fd8;fill-opacity:1" />
      <polygon
         points="12.16,7.863 12.16,13.674 17.192,10.768 "
         id="polygon1042"
         transform="matrix(91.954465,0,0,91.954465,4074.1543,-3153.0182)"
         style="fill:#208fd8;fill-opacity:1" />
    </g>
  </g>
</svg>
